<?xml version="1.0" encoding="utf-8"?>
<svg viewBox="0 0 165.202 173.8775" xmlns="http://www.w3.org/2000/svg">
  <defs>
    <style type="text/css">
	.st0{fill:#FFFFFF;}
	.st1{fill:#110063;}
	.st2{fill:#FF0000;}
</style>
  </defs>
  <g transform="matrix(1, 0, 0, 1, -117.51600059145689, -68.47799784657354)">
    <path class="st1" d="M 200.117 233.681 C 154.57 233.681 117.516 196.627 117.516 151.08 C 117.516 105.533 154.57 68.478 200.117 68.478 C 245.664 68.478 282.718 105.533 282.718 151.08 C 282.718 196.627 245.664 233.681 200.117 233.681 M 200.117 94.563 C 168.954 94.563 143.6 119.916 143.6 151.08 C 143.6 182.243 168.954 207.597 200.117 207.597 C 231.28 207.597 256.634 182.243 256.634 151.08 C 256.634 119.916 231.28 94.563 200.117 94.563"/>
    <path class="st2" d="M 200.117 207.325 C 185.094 207.325 170.969 201.475 160.346 190.851 C 149.722 180.228 143.872 166.103 143.872 151.08 C 143.872 136.057 149.722 121.932 160.346 111.309 C 170.969 100.685 185.094 94.835 200.117 94.835 C 215.14 94.835 229.265 100.685 239.888 111.309 L 221.828 129.369 C 216.029 123.57 208.318 120.376 200.117 120.376 C 191.916 120.376 184.206 123.57 178.406 129.369 C 172.607 135.169 169.413 142.879 169.413 151.08 C 169.413 159.281 172.607 166.991 178.406 172.791 C 184.206 178.59 191.916 181.784 200.117 181.784 C 208.318 181.784 216.029 178.59 221.828 172.791 L 239.888 190.851 C 229.265 201.475 215.14 207.325 200.117 207.325"/>
    <rect x="462.168" y="318.547" transform="matrix(0.746636, -0.665232, 0.665232, 0.746636, -322.918126, 287.22379)" class="st1" width="26.084" height="33.138"/>
  </g>
</svg>